<?xml version="1.0" standalone="no"?>
<!DOCTYPE svg PUBLIC "-//W3C//DTD SVG 20010904//EN"
 "http://www.w3.org/TR/2001/REC-SVG-20010904/DTD/svg10.dtd">
<svg version="1.0" xmlns="http://www.w3.org/2000/svg"
 width="209.000000pt" height="209.000000pt" viewBox="0 0 209.000000 209.000000"
 preserveAspectRatio="xMidYMid meet">
<metadata>
Created by potrace 1.14, written by Peter Selinger 2001-2017
</metadata>
<g transform="translate(0.000000,209.000000) scale(0.100000,-0.100000)"
fill="#000000" stroke="none">
<path d="M1130 2070 c-179 -8 -256 -21 -309 -53 -19 -11 -31 -15 -27 -8 16 25
-30 -7 -63 -44 -70 -81 -104 -206 -94 -350 l6 -86 61 -53 c77 -66 114 -92 201
-139 38 -21 61 -37 50 -36 -11 1 -22 0 -25 -1 -3 -1 -22 -2 -43 -3 -27 -2 -36
2 -32 11 3 9 0 10 -12 4 -9 -5 -25 -7 -37 -4 -15 3 -18 1 -11 -6 6 -6 24 -12
40 -14 17 -3 47 -12 69 -21 21 -9 42 -17 45 -17 15 0 91 -72 111 -106 15 -24
20 -44 17 -63 -3 -15 1 -50 9 -76 7 -27 14 -54 14 -61 0 -34 -199 -46 -304
-19 -54 14 -188 77 -231 109 -17 12 -17 16 12 77 38 80 101 143 159 160 42 13
61 39 29 39 -8 0 -15 5 -15 11 0 5 -4 8 -8 5 -5 -3 -39 19 -75 49 -58 48 -65
58 -58 78 4 12 11 40 15 62 l7 40 -19 -31 c-25 -40 -70 -60 -174 -80 -45 -8
-90 -22 -98 -30 -13 -13 -12 -14 13 -5 53 20 148 13 204 -14 28 -15 57 -33 65
-42 7 -9 9 -14 3 -11 -5 3 -16 0 -23 -8 -7 -8 -10 -14 -7 -14 3 0 -4 -10 -15
-22 -11 -13 -23 -33 -27 -46 -4 -18 -8 -21 -14 -10 -7 10 -9 9 -9 -4 0 -10 0
-21 1 -24 0 -3 -10 -14 -22 -25 -12 -10 -22 -29 -23 -41 -1 -14 -7 -23 -17
-22 -9 1 -15 -8 -16 -20 -1 -12 1 -15 4 -8 7 19 22 14 16 -6 -2 -10 -13 -19
-24 -19 -11 -1 -17 3 -13 9 4 6 -1 8 -15 3 -25 -8 -83 3 -76 14 2 5 -7 7 -21
5 -20 -2 -24 1 -20 13 5 13 4 14 -9 3 -8 -7 -15 -8 -15 -2 0 5 -7 13 -16 16
-14 5 -15 4 -5 -8 7 -8 10 -19 7 -25 -9 -15 22 -41 41 -34 10 4 14 2 9 -5 -3
-6 -2 -13 4 -17 9 -6 14 8 11 28 -1 5 3 6 9 2 6 -3 8 -10 5 -15 -3 -5 -1 -11
5 -15 17 -11 11 -28 -8 -20 -71 31 -86 33 -100 16 -7 -9 -11 -11 -8 -4 4 6 0
14 -6 16 -12 5 15 11 34 8 4 0 4 7 1 16 -4 11 -8 13 -11 5 -4 -14 -32 -16 -32
-2 0 6 6 10 14 10 24 0 29 20 10 41 -27 30 -34 23 -33 -33 2 -94 -1 -124 -10
-110 -6 10 -12 0 -19 -31 -9 -33 -9 -66 0 -128 17 -133 26 -159 68 -201 44
-43 65 -103 55 -157 -9 -46 -72 -110 -111 -112 -16 -1 -40 -2 -54 -3 -23 -1
-25 -5 -25 -45 l0 -44 94 -48 c51 -27 101 -49 111 -49 10 0 23 -7 30 -15 6 -8
15 -14 18 -13 4 1 20 -4 35 -10 16 -7 34 -12 42 -12 8 0 16 -4 19 -9 4 -5 25
-13 49 -17 70 -13 222 -1 211 17 -3 5 -1 9 5 9 5 0 13 -5 17 -11 4 -7 22 -9
48 -6 41 6 43 5 55 -29 21 -59 45 -64 293 -61 l218 3 32 30 c18 17 48 37 66
44 48 19 112 68 112 86 0 10 6 13 18 10 20 -7 57 28 114 109 47 66 63 100 78
163 9 37 24 66 56 101 43 48 43 49 23 63 l-21 14 28 54 c16 30 33 58 39 62 5
4 7 10 3 13 -3 4 3 16 13 26 11 11 18 26 16 32 -2 7 3 18 12 24 17 14 20 10
-76 88 -72 59 -70 168 7 319 28 56 54 124 59 151 5 28 12 60 16 72 6 18 1 26
-24 41 -17 10 -28 22 -23 27 4 5 2 5 -5 2 -6 -4 -18 -1 -26 7 -8 8 -17 12 -21
9 -3 -4 -6 -2 -6 4 0 5 -6 10 -13 10 -7 0 -45 14 -83 32 l-70 32 -11 80 c-10
78 -57 195 -77 189 -4 -1 -27 16 -50 38 -22 22 -52 43 -66 47 -14 4 -50 22
-80 41 -30 18 -66 35 -80 37 -14 2 -99 1 -190 -3z m-88 -133 c-118 -126 -168
-311 -128 -479 7 -32 10 -58 6 -58 -15 0 -88 60 -109 88 -74 104 -66 277 18
388 49 64 141 114 213 114 l51 0 -51 -53z m319 -525 c-6 -11 -18 -22 -26 -26
-12 -4 -10 2 7 23 26 32 35 33 19 3z m215 -255 c34 -18 79 -79 100 -139 12
-36 12 -39 -4 -34 -21 7 -151 36 -172 39 -30 4 -62 50 -58 84 2 17 0 29 -4 27
-4 -3 -8 0 -8 6 0 6 -4 9 -9 6 -5 -3 -14 1 -21 10 -7 8 -19 13 -27 10 -9 -4
-11 -1 -7 5 10 17 172 6 210 -14z m-142 -119 c-9 -14 -32 -9 -39 10 -5 14 -4
15 6 5 18 -18 29 -16 23 5 -5 14 -4 14 4 2 6 -8 8 -18 6 -22z m-1051 -8 c-3
-12 -8 -19 -11 -16 -5 6 5 36 12 36 2 0 2 -9 -1 -20z m1087 6 c0 -2 -7 -7 -16
-10 -8 -3 -12 -2 -9 4 6 10 25 14 25 6z m-869 -78 c111 -82 293 -127 426 -106
66 10 79 4 59 -28 -9 -13 -16 -29 -16 -35 0 -7 -8 -18 -17 -26 -10 -8 -12 -11
-4 -7 9 5 12 3 7 -4 -4 -7 -16 -17 -28 -23 -16 -9 -19 -8 -12 3 4 7 -6 -1 -24
-19 -18 -17 -32 -37 -32 -43 0 -6 -4 -9 -9 -6 -5 4 -11 1 -13 -4 -7 -21 -82
-38 -146 -34 -79 6 -226 58 -251 90 -10 13 -22 20 -25 16 -10 -9 -5 140 6 197
15 78 21 97 25 81 2 -8 26 -32 54 -52z m1126 -228 c5 -97 2 -129 -16 -200 -24
-99 -120 -300 -156 -328 -13 -11 -21 -22 -18 -26 3 -3 2 -6 -4 -6 -21 0 -21
13 3 38 13 15 24 35 24 44 0 10 8 18 18 19 14 0 14 2 -3 9 -11 5 -14 9 -8 9 7
1 15 12 19 26 3 14 10 23 14 20 4 -2 7 3 7 13 0 9 10 40 23 67 14 28 31 75 38
105 16 62 23 326 10 353 -5 10 -5 17 2 17 5 0 10 10 11 23 0 14 6 6 15 -23 9
-25 18 -97 21 -160z m-1250 125 c0 -8 -4 -12 -9 -9 -4 3 -8 9 -8 15 0 5 4 9 8
9 5 0 9 -7 9 -15z m1087 -75 c58 -27 66 -35 66 -59 0 -37 -35 -137 -64 -186
-25 -40 -25 -40 -34 -15 -5 13 -6 39 -2 57 5 18 5 35 1 38 -4 2 -6 25 -4 50 3
29 0 45 -7 45 -6 0 -8 5 -5 10 3 6 1 10 -5 10 -6 0 -9 4 -6 9 3 5 -1 12 -10
15 -9 3 -14 12 -11 20 4 10 0 12 -16 8 -20 -5 -21 -4 -7 13 8 10 10 16 3 12
-6 -4 -14 -3 -17 2 -11 18 51 2 118 -29z m-887 -164 c43 -14 91 -27 107 -31
37 -8 26 -19 -17 -17 -29 1 -195 69 -175 71 4 1 42 -10 85 -23z m-224 -252
c36 -17 40 -25 40 -76 0 -10 4 -18 9 -18 5 0 6 -5 3 -10 -4 -6 -12 -8 -18 -4
-7 3 -5 -1 4 -8 15 -12 15 -16 3 -33 -8 -10 -14 -14 -14 -9 0 5 -13 18 -30 27
-16 10 -30 15 -30 12 0 -3 -6 -3 -12 2 -23 14 -37 12 -30 -5 5 -15 4 -15 -11
-3 -9 7 -23 11 -31 8 -7 -3 -24 0 -37 7 -13 7 -45 18 -71 25 -27 8 -48 17 -48
22 0 15 69 64 107 76 47 16 118 10 166 -13z m453 -332 c-9 -8 -35 12 -38 32
-9 44 5 51 23 11 10 -22 16 -41 15 -43z"/>
<path d="M201 1263 c0 -6 -4 -20 -7 -30 -5 -14 -4 -15 5 -7 7 7 11 20 8 30 -3
11 -5 14 -6 7z"/>
</g>
</svg>
